<?xml version="1.0" encoding="UTF-8"?>
<svg width="96px" height="23px" viewBox="0 0 96 23" version="1.1" xmlns="http://www.w3.org/2000/svg" xmlns:xlink="http://www.w3.org/1999/xlink">
    <!-- Generator: Sketch 42 (36781) - http://www.bohemiancoding.com/sketch -->
    <title>etanee_logo_white</title>
    <desc>Created with Sketch.</desc>
    <defs></defs>
    <g id="MW" stroke="none" stroke-width="1" fill="none" fill-rule="evenodd">
        <g id="Home" transform="translate(-112.000000, -13.000000)" fill-rule="nonzero" fill="#FFFFFF">
            <g id="etanee_logo_white" transform="translate(112.000000, 13.000000)">
                <g id="Group-17">
                    <path d="M0,15.5800757 C0,12.6563206 0.890122449,10.3807287 2.67036735,8.75330017 C4.45061224,7.1258716 6.64979592,6.31248384 9.26791837,6.3131369 C11.0834286,6.3131369 12.5394286,6.70823894 13.6359184,7.49844303 C14.7324082,8.28864711 15.2809796,9.34366752 15.2816327,10.6635043 C15.2926481,11.5998858 14.9813706,12.511583 14.4,13.2457083 C13.8289768,13.9858335 13.0903425,14.5797626 12.244898,14.9786063 C10.452898,15.7805655 8.89665306,16.2641573 7.57616327,16.4293818 L6.69453061,16.5351777 C6.9557551,18.0914226 7.73387755,18.8695451 9.02889796,18.8695451 C9.6706355,18.8550617 10.3050058,18.7294471 10.9038367,18.4982798 C11.4724613,18.3053818 12.0181167,18.0504579 12.5309388,17.7381165 L13.1324082,17.3844838 L14.2638367,18.9048104 L13.872,19.2966471 C13.7309388,19.4383614 13.3949388,19.7155859 12.864,20.1283206 C12.3412004,20.5351228 11.7839972,20.895666 11.1986939,21.2058716 C10.4934483,21.5608258 9.7522507,21.8393085 8.9877551,22.0365655 C8.11263785,22.2811665 7.20841165,22.4060578 6.2997551,22.4078308 C4.29485714,22.4078308 2.74416327,21.8243206 1.64767347,20.6573002 C0.551183673,19.4902798 0.00195918367,17.7978716 0,15.5800757 Z M8.59591837,12.5198308 C9.27902041,11.4938716 9.62089796,10.6331369 9.62155102,9.9376267 C9.62220408,9.2421165 9.41910204,8.89436139 9.0122449,8.89436139 C8.4244898,8.89436139 7.88212245,9.35444303 7.38514286,10.2746063 C6.88816327,11.1947696 6.60506122,12.5035043 6.53583673,14.2008104 C7.22220408,14.1067696 7.90759184,13.5467696 8.592,12.5208104 L8.59591837,12.5198308 Z" id="Shape"></path>
                    <path d="M43.7162449,13.1222798 C43.3629388,15.2329736 43.1862857,16.7069328 43.1862857,17.5441573 C43.1862857,18.3813818 43.316898,18.799994 43.5781224,18.799994 L45.3472653,18.3043206 L45.984,20.0724838 C45.226449,20.6621981 44.2657959,21.1986879 43.1020408,21.6819532 C41.9382857,22.1652185 40.906449,22.4068512 40.0065306,22.4068512 C38.4731429,22.4068512 37.5062857,21.7466063 37.1059592,20.4261165 C35.2427755,21.7472594 33.5980408,22.4075043 32.1717551,22.4068512 C30.7454694,22.4061981 29.643102,21.887341 28.8646531,20.8502798 C28.0862041,19.8132185 27.6969796,18.3275043 27.6969796,16.3931369 C27.6969796,13.7286471 28.3807347,11.3821981 29.7482449,9.35378996 C31.1157551,7.3253818 32.9198367,6.31150425 35.1604898,6.31215731 C36.3862857,6.31215731 37.6362449,6.65403486 38.9103673,7.33778996 C39.044105,7.02169206 39.1978872,6.71445493 39.3707755,6.41795323 C41.0687347,6.41795323 42.9433469,6.83068792 44.9946122,7.65615731 C44.4963265,9.18954507 44.0702041,11.0115859 43.7162449,13.1222798 Z M34.3425306,15.951341 C34.3425306,17.1425247 34.4248163,17.8912594 34.5893878,18.1975451 C34.7539592,18.5038308 35.0605714,18.6569736 35.5092245,18.6569736 C35.9565714,18.6569736 36.3928163,18.479994 36.8179592,18.1260349 C36.912,15.3910145 37.36,12.5257083 38.1619592,9.5301165 C37.7921438,9.3137133 37.3697877,9.20354818 36.9413878,9.21174915 C36.4842449,9.21174915 36.0715102,9.47134099 35.7031837,9.99052466 C35.3065741,10.5813391 35.0250729,11.2417203 34.8734694,11.9369736 C34.5195102,13.4226879 34.3425306,14.7608104 34.3425306,15.951341 Z" id="Shape"></path>
                    <path d="M47.1908571,22.1952594 L46.5893878,22.1952594 C46.5893878,20.7330553 46.9253878,18.5162389 47.5973878,15.5448104 C48.2693878,12.5733818 48.6053878,10.863994 48.6053878,10.4166471 C48.6036826,9.96143331 48.4946057,9.5130431 48.2870204,9.10791241 C48.1260509,8.75819353 47.9111918,8.43590489 47.6502857,8.15281037 L47.332898,7.83444303 L47.4034286,7.30350425 C48.794449,6.85550425 51.2231837,6.63150425 54.6896327,6.63150425 C54.9253606,7.17436865 55.0918914,7.74472001 55.1853061,8.3291369 C57.3306122,7.00864711 59.1346939,6.34840221 60.597551,6.34840221 C61.5882449,6.34840221 62.3663673,6.67264711 62.9319184,7.3211369 C63.4965057,7.96588795 63.7991576,8.79870493 63.7802449,9.65550425 C63.7802449,10.5639124 63.5209796,12.0202389 63.002449,14.0244838 C62.4839184,16.0287287 62.2243265,17.3315859 62.2236735,17.9330553 C62.2236735,18.5345247 62.3062857,18.8352594 62.4715102,18.8352594 L64.346449,18.3395859 L64.9831837,20.1087287 C64.2282449,20.6742798 63.2437551,21.1990145 62.0297143,21.6829328 C60.8156735,22.1668512 59.701551,22.4084838 58.6873469,22.4078308 C56.683102,22.4078308 55.6809796,21.3701165 55.6809796,19.2946879 C55.6809796,18.3986879 55.9284898,16.9364838 56.4235102,14.9080757 C56.9185306,12.8796675 57.1663673,11.6120757 57.1670204,11.1053002 C57.1670204,10.5985247 57.0017959,10.3451369 56.6713469,10.3451369 C56.2468571,10.3451369 55.6809796,10.580892 54.9737143,11.0524022 C54.8790204,11.476892 54.6432653,12.5028512 54.266449,14.1302798 C53.5115102,17.5497083 53.1343673,20.0140349 53.1350204,21.5232594 C51.9777959,21.9712594 49.9964082,22.1952594 47.1908571,22.1952594 Z" id="Shape"></path>
                    <path d="M65.1644082,15.5800757 C65.1644082,12.6563206 66.0545306,10.3807287 67.8347755,8.75330017 C69.6150204,7.1258716 71.8138776,6.31248384 74.4313469,6.3131369 C76.2468571,6.3131369 77.7028571,6.70823894 78.7993469,7.49844303 C79.8958367,8.28864711 80.4440816,9.34399405 80.4440816,10.6644838 C80.4553368,11.6009038 80.1440327,12.5126789 79.562449,13.2466879 C78.991372,13.9867604 78.2527515,14.5806784 77.4073469,14.9795859 C75.6153469,15.7815451 74.0587755,16.2651369 72.7376327,16.4303614 L71.856,16.5361573 C72.1172245,18.0924022 72.8953469,18.8705247 74.1903673,18.8705247 C74.8321027,18.8560216 75.4664697,18.7304077 76.0653061,18.4992594 C76.6339189,18.3063318 77.1795711,18.0514094 77.6924082,17.7390961 L78.2938776,17.3854634 L79.4262857,18.90579 L79.034449,19.2976267 C78.8927347,19.439341 78.5567347,19.7165655 78.026449,20.1293002 C77.5035777,20.5360015 76.9463835,20.8965389 76.3611429,21.2068512 C75.6558972,21.5618054 74.9146997,21.8402881 74.1502041,22.0375451 C73.2750967,22.2821934 72.370864,22.4070856 71.4622041,22.4088104 C69.4579592,22.4088104 67.9075918,21.8253002 66.811102,20.6582798 C65.7146122,19.4912594 65.1657143,17.7985247 65.1644082,15.5800757 Z M73.7632653,12.5208104 C74.4470204,11.4948512 74.788898,10.6341165 74.788898,9.93860629 C74.788898,9.24309609 74.5884082,8.89534099 74.1874286,8.89534099 C73.5996735,8.89534099 73.0573061,9.35542262 72.5603265,10.2755859 C72.0633469,11.1957491 71.7786122,12.5041573 71.7061224,14.2008104 C72.3911837,14.1067696 73.076898,13.5467696 73.7632653,12.5208104 Z" id="Shape"></path>
                    <path d="M80.6850612,15.5800757 C80.6850612,12.6563206 81.5751837,10.3807287 83.3554286,8.75330017 C85.1356735,7.1258716 87.3345306,6.31248384 89.952,6.3131369 C91.7675102,6.3131369 93.2238367,6.70823894 94.3209796,7.49844303 C95.4181224,8.28864711 95.9663673,9.34399405 95.9657143,10.6644838 C95.9768096,11.6008782 95.6655232,12.5126013 95.0840816,13.2466879 C94.5130047,13.9867604 93.7743842,14.5806784 92.9289796,14.9795859 C91.1363265,15.7815451 89.5797551,16.2651369 88.2592653,16.4303614 L87.3776327,16.5361573 C87.6388571,18.0924022 88.4169796,18.8705247 89.712,18.8705247 C90.3537375,18.8560413 90.9881078,18.7304267 91.5869388,18.4992594 C92.155516,18.3062435 92.7011588,18.0513255 93.2140408,17.7390961 L93.8155102,17.3854634 L94.9479184,18.90579 L94.5560816,19.2976267 C94.4143673,19.439341 94.0783673,19.7165655 93.5480816,20.1293002 C93.0252476,20.5360539 92.4680487,20.8965944 91.8827755,21.2068512 C91.1775631,21.5618811 90.4363572,21.8403669 89.6718367,22.0375451 C88.7967293,22.2821934 87.8924966,22.4070856 86.9838367,22.4088104 C84.9789388,22.4088104 83.4282449,21.8253002 82.3317551,20.6582798 C81.2352653,19.4912594 80.6863673,17.7985247 80.6850612,15.5800757 Z M89.2809796,12.5198308 C89.9647347,11.4938716 90.3066122,10.6331369 90.3066122,9.9376267 C90.3066122,9.2421165 90.1061224,8.89436139 89.7051429,8.89436139 C89.1173878,8.89436139 88.5750204,9.35444303 88.0780408,10.2746063 C87.5810612,11.1947696 87.2979592,12.5035043 87.2287347,14.2008104 C87.9124898,14.1067696 88.5962449,13.5467696 89.28,12.5208104 L89.2809796,12.5198308 Z" id="Shape"></path>
                    <path d="M31.2489796,3.09909609 C31.2489796,3.09909609 30.7297959,4.61256548 23.306449,4.69974915 C20.3794286,4.73403486 18.2302041,5.20325935 17.2035918,6.20440221 C15.4981224,7.86970833 15.7743673,10.1717491 15.7743673,10.1717491 C15.7743673,10.1717491 16.5835102,7.0693818 23.4729796,7.09876956 C24.4976327,7.09876956 28.0280816,7.05272874 28.8685714,6.17991241 C28.084898,7.4416267 24.5182041,7.5258716 23.5023673,7.55721854 C18.9257143,7.69827976 16.891102,9.05305527 15.9996735,10.8711777 C16.7000816,10.522443 17.7942857,10.2765655 22.3591837,10.255994 C27.4040816,10.2324838 31.2587755,9.21664711 31.2489796,3.09909609 Z" id="Shape"></path>
                    <path d="M23.3005714,4.19721854 C24.6034286,4.18154507 25.6927347,4.12276956 26.6037551,4.03558588 C26.8633469,2.74252466 27.1915102,1.18399405 27.456,0.000647107832 C25.3802449,0.000647107832 23.6630204,-0.048332484 21.3766531,0.70595323 C21.3766531,0.70595323 20.8662857,2.54366752 20.4117551,4.41468792 C21.368235,4.27303548 22.3336643,4.2003582 23.3005714,4.19721854 L23.3005714,4.19721854 Z" id="Shape"></path>
                    <path d="M24.3222857,18.90579 C24.0388571,18.90579 23.8974694,18.6876675 23.8981224,18.2514226 C23.9067731,17.6895083 23.9479851,17.1285677 24.021551,16.5714226 C24.0832653,16.0590961 24.6093061,13.3779532 25.2078367,10.6164838 C24.2391856,10.7370616 23.2637904,10.7953039 22.2876735,10.7908512 C20.8672653,10.7977083 19.7828571,10.8261165 18.9423673,10.8721573 C18.7082449,11.9497083 18.4427755,13.4298716 18.2027755,14.3428512 C17.6150204,16.5828512 17.3211429,18.2099532 17.3211429,19.2241573 C17.3211429,20.2383614 17.6395102,21.0220349 18.2762449,21.5751777 C18.9129796,22.1289736 19.7678367,22.4058716 20.8408163,22.4058716 C21.9137959,22.4058716 23.0279184,22.1701165 24.1831837,21.6986063 C25.338449,21.2270961 26.293551,20.6494634 27.0484898,19.9657083 L26.2001633,18.2680757 C25.2780408,18.6925655 24.6520816,18.9051369 24.3222857,18.90579 Z" id="Shape"></path>
                </g>
            </g>
        </g>
    </g>
</svg>